# xmcd
#
# Track frame offsets:
# 150
# 21335
# 45216
# 65463
# 82483
# 102536
# 125422
# 144638
# 167359
# 185316
# 202804
# 220800
# 232258
#
# Disc length: 3430 seconds
#
#
# Revision: 0
# Processed by: cddbd v1.5.1PL2 Copyright (c) Steve Scherf et al.
# Submitted via: FreeRIP 2.944 
#
DISCID=b80d640d
DTITLE=Olga - Kiss your blues away
DYEAR=2005
DGENRE=Blues
TTITLE0=Kiss your blues away
TTITLE1=Is it so wrong
TTITLE2=Remind me who I'm talking to
TTITLE3=For the love af music
TTITLE4=Say, baby
TTITLE5=Isn't it always for the best
TTITLE6=Keep it on the down low
TTITLE7=There'll be some walkin' done
TTITLE8=Now I know
TTITLE9=Goin' to catch my baby
TTITLE10=Loving you is all I know
TTITLE11=You don't know
TTITLE12=It's just the devil in you
EXTD=
EXTT0=
EXTT1=
EXTT2=
EXTT3=
EXTT4=
EXTT5=
EXTT6=
EXTT7=
EXTT8=
EXTT9=
EXTT10=
EXTT11=
EXTT12=
PLAYORDER=
